<svg xmlns="http://www.w3.org/2000/svg" xmlns:xlink="http://www.w3.org/1999/xlink" viewBox="1299 1312 1916.82 923.578"><defs><style>.a{fill:none;}.b{fill:#7f8c8d;}.c{clip-path:url(#a);}.d{fill:#95a5a6;}.e{clip-path:url(#b);}.f{clip-path:url(#c);}.g{clip-path:url(#d);}.h{clip-path:url(#e);}.i{clip-path:url(#f);}.j{clip-path:url(#g);}</style><clipPath id="a"><rect class="a" width="263" height="821"/></clipPath><clipPath id="b"><rect class="a" width="177" height="388"/></clipPath><clipPath id="c"><rect class="a" width="160" height="585"/></clipPath><clipPath id="d"><rect class="a" width="147" height="432"/></clipPath><clipPath id="e"><rect class="a" width="226" height="227"/></clipPath><clipPath id="f"><rect class="a" width="174" height="346"/></clipPath><clipPath id="g"><rect class="a" width="185" height="680"/></clipPath></defs><g transform="translate(1299 1162)"><path class="b" d="M-700,2156h50V1706h150v450h50V1556l100-150,100,150v600h50V1756l100-50L0,1756v400H50V1306H350v850h50V1906H650v250h50V1806l100-100,100,100v350h50V1456h200v700h66.82v73.578H-700Z" transform="translate(700 -1156)"/><g class="c" transform="translate(773 179)"><g transform="translate(-773 -179)"><rect class="d" width="41" height="821" transform="translate(773 179)"/></g><g transform="translate(-719 -179)"><rect class="d" width="41" height="821" transform="translate(773 179)"/></g><g transform="translate(-665 -179)"><rect class="d" width="41" height="821" transform="translate(773 179)"/></g><g transform="translate(-611 -179)"><rect class="d" width="41" height="821" transform="translate(773 179)"/></g><g transform="translate(-557 -179)"><rect class="d" width="41" height="821" transform="translate(773 179)"/></g></g><g class="e" transform="translate(519 618)"><g transform="translate(-519 -618)"><rect class="d" width="31" height="32" transform="translate(519 618)"/></g><g transform="translate(-474 -618)"><rect class="d" width="31" height="32" transform="translate(519 618)"/></g><g transform="translate(-429 -618)"><rect class="d" width="31" height="32" transform="translate(519 618)"/></g><g transform="translate(-384 -618)"><rect class="d" width="31" height="32" transform="translate(519 618)"/></g><g transform="translate(-519 -562)"><rect class="d" width="31" height="32" transform="translate(519 618)"/></g><g transform="translate(-474 -562)"><rect class="d" width="31" height="32" transform="translate(519 618)"/></g><g transform="translate(-429 -562)"><rect class="d" width="31" height="32" transform="translate(519 618)"/></g><g transform="translate(-384 -562)"><rect class="d" width="31" height="32" transform="translate(519 618)"/></g><g transform="translate(-519 -506)"><rect class="d" width="31" height="32" transform="translate(519 618)"/></g><g transform="translate(-474 -506)"><rect class="d" width="31" height="32" transform="translate(519 618)"/></g><g transform="translate(-429 -506)"><rect class="d" width="31" height="32" transform="translate(519 618)"/></g><g transform="translate(-384 -506)"><rect class="d" width="31" height="32" transform="translate(519 618)"/></g><g transform="translate(-519 -450)"><rect class="d" width="31" height="32" transform="translate(519 618)"/></g><g transform="translate(-474 -450)"><rect class="d" width="31" height="32" transform="translate(519 618)"/></g><g transform="translate(-429 -450)"><rect class="d" width="31" height="32" transform="translate(519 618)"/></g><g transform="translate(-384 -450)"><rect class="d" width="31" height="32" transform="translate(519 618)"/></g><g transform="translate(-519 -394)"><rect class="d" width="31" height="32" transform="translate(519 618)"/></g><g transform="translate(-474 -394)"><rect class="d" width="31" height="32" transform="translate(519 618)"/></g><g transform="translate(-429 -394)"><rect class="d" width="31" height="32" transform="translate(519 618)"/></g><g transform="translate(-384 -394)"><rect class="d" width="31" height="32" transform="translate(519 618)"/></g><g transform="translate(-519 -338)"><rect class="d" width="31" height="32" transform="translate(519 618)"/></g><g transform="translate(-474 -338)"><rect class="d" width="31" height="32" transform="translate(519 618)"/></g><g transform="translate(-429 -338)"><rect class="d" width="31" height="32" transform="translate(519 618)"/></g><g transform="translate(-384 -338)"><rect class="d" width="31" height="32" transform="translate(519 618)"/></g><g transform="translate(-519 -282)"><rect class="d" width="31" height="32" transform="translate(519 618)"/></g><g transform="translate(-474 -282)"><rect class="d" width="31" height="32" transform="translate(519 618)"/></g><g transform="translate(-429 -282)"><rect class="d" width="31" height="32" transform="translate(519 618)"/></g><g transform="translate(-384 -282)"><rect class="d" width="31" height="32" transform="translate(519 618)"/></g></g><g class="f" transform="translate(272 415)"><g transform="translate(-272 -415)"><rect class="d" width="160" height="35" transform="translate(272 415)"/></g><g transform="translate(-272 -360)"><rect class="d" width="160" height="35" transform="translate(272 415)"/></g><g transform="translate(-272 -305)"><rect class="d" width="160" height="35" transform="translate(272 415)"/></g><g transform="translate(-272 -250)"><rect class="d" width="160" height="35" transform="translate(272 415)"/></g><g transform="translate(-272 -195)"><rect class="d" width="160" height="35" transform="translate(272 415)"/></g><g transform="translate(-272 -140)"><rect class="d" width="160" height="35" transform="translate(272 415)"/></g><g transform="translate(-272 -85)"><rect class="d" width="160" height="35" transform="translate(272 415)"/></g><g transform="translate(-272 -30)"><rect class="d" width="160" height="35" transform="translate(272 415)"/></g><g transform="translate(-272 25)"><rect class="d" width="160" height="35" transform="translate(272 415)"/></g><g transform="translate(-272 80)"><rect class="d" width="160" height="35" transform="translate(272 415)"/></g><g transform="translate(-272 135)"><rect class="d" width="160" height="35" transform="translate(272 415)"/></g></g><g class="g" transform="translate(62 568)"><g transform="translate(-519 -618)"><rect class="d" width="31" height="32" transform="translate(519 618)"/></g><g transform="translate(-471 -618)"><rect class="d" width="31" height="32" transform="translate(519 618)"/></g><g transform="translate(-423 -618)"><rect class="d" width="31" height="32" transform="translate(519 618)"/></g><g transform="translate(-375 -618)"><rect class="d" width="31" height="32" transform="translate(519 618)"/></g><g transform="translate(-519 -562)"><rect class="d" width="31" height="32" transform="translate(519 618)"/></g><g transform="translate(-471 -562)"><rect class="d" width="31" height="32" transform="translate(519 618)"/></g><g transform="translate(-423 -562)"><rect class="d" width="31" height="32" transform="translate(519 618)"/></g><g transform="translate(-375 -562)"><rect class="d" width="31" height="32" transform="translate(519 618)"/></g><g transform="translate(-519 -506)"><rect class="d" width="31" height="32" transform="translate(519 618)"/></g><g transform="translate(-471 -506)"><rect class="d" width="31" height="32" transform="translate(519 618)"/></g><g transform="translate(-423 -506)"><rect class="d" width="31" height="32" transform="translate(519 618)"/></g><g transform="translate(-375 -506)"><rect class="d" width="31" height="32" transform="translate(519 618)"/></g><g transform="translate(-519 -450)"><rect class="d" width="31" height="32" transform="translate(519 618)"/></g><g transform="translate(-471 -450)"><rect class="d" width="31" height="32" transform="translate(519 618)"/></g><g transform="translate(-423 -450)"><rect class="d" width="31" height="32" transform="translate(519 618)"/></g><g transform="translate(-375 -450)"><rect class="d" width="31" height="32" transform="translate(519 618)"/></g><g transform="translate(-519 -394)"><rect class="d" width="31" height="32" transform="translate(519 618)"/></g><g transform="translate(-471 -394)"><rect class="d" width="31" height="32" transform="translate(519 618)"/></g><g transform="translate(-423 -394)"><rect class="d" width="31" height="32" transform="translate(519 618)"/></g><g transform="translate(-375 -394)"><rect class="d" width="31" height="32" transform="translate(519 618)"/></g><g transform="translate(-519 -338)"><rect class="d" width="31" height="32" transform="translate(519 618)"/></g><g transform="translate(-471 -338)"><rect class="d" width="31" height="32" transform="translate(519 618)"/></g><g transform="translate(-423 -338)"><rect class="d" width="31" height="32" transform="translate(519 618)"/></g><g transform="translate(-375 -338)"><rect class="d" width="31" height="32" transform="translate(519 618)"/></g><g transform="translate(-519 -282)"><rect class="d" width="31" height="32" transform="translate(519 618)"/></g><g transform="translate(-471 -282)"><rect class="d" width="31" height="32" transform="translate(519 618)"/></g><g transform="translate(-423 -282)"><rect class="d" width="31" height="32" transform="translate(519 618)"/></g><g transform="translate(-375 -282)"><rect class="d" width="31" height="32" transform="translate(519 618)"/></g><g transform="translate(-519 -226)"><rect class="d" width="31" height="32" transform="translate(519 618)"/></g><g transform="translate(-471 -226)"><rect class="d" width="31" height="32" transform="translate(519 618)"/></g><g transform="translate(-423 -226)"><rect class="d" width="31" height="32" transform="translate(519 618)"/></g><g transform="translate(-375 -226)"><rect class="d" width="31" height="32" transform="translate(519 618)"/></g></g><g class="h" transform="translate(1113 773.5)"><g transform="translate(-272 -415)"><rect class="d" width="222" height="27" transform="translate(272 415)"/></g><g transform="translate(-92 -415)"><rect class="d" width="222" height="27" transform="translate(272 415)"/></g><g transform="translate(-272 -377)"><rect class="d" width="222" height="27" transform="translate(272 415)"/></g><g transform="translate(-92 -377)"><rect class="d" width="222" height="27" transform="translate(272 415)"/></g><g transform="translate(-272 -339)"><rect class="d" width="222" height="27" transform="translate(272 415)"/></g><g transform="translate(-92 -339)"><rect class="d" width="222" height="27" transform="translate(272 415)"/></g><g transform="translate(-272 -301)"><rect class="d" width="222" height="27" transform="translate(272 415)"/></g><g transform="translate(-92 -301)"><rect class="d" width="222" height="27" transform="translate(272 415)"/></g><g transform="translate(-272 -263)"><rect class="d" width="222" height="27" transform="translate(272 415)"/></g><g transform="translate(-92 -263)"><rect class="d" width="222" height="27" transform="translate(272 415)"/></g><g transform="translate(-272 -225)"><rect class="d" width="222" height="27" transform="translate(272 415)"/></g><g transform="translate(-92 -225)"><rect class="d" width="222" height="27" transform="translate(272 415)"/></g></g><g class="i" transform="translate(1415 654)"><g transform="translate(-519 -618)"><rect class="d" width="31" height="52" transform="translate(519 618)"/></g><g transform="translate(-471 -618)"><rect class="d" width="31" height="52" transform="translate(519 618)"/></g><g transform="translate(-423 -618)"><rect class="d" width="31" height="52" transform="translate(519 618)"/></g><g transform="translate(-375 -618)"><rect class="d" width="31" height="52" transform="translate(519 618)"/></g><g transform="translate(-519 -555)"><rect class="d" width="31" height="52" transform="translate(519 618)"/></g><g transform="translate(-471 -555)"><rect class="d" width="31" height="52" transform="translate(519 618)"/></g><g transform="translate(-423 -555)"><rect class="d" width="31" height="52" transform="translate(519 618)"/></g><g transform="translate(-375 -555)"><rect class="d" width="31" height="52" transform="translate(519 618)"/></g><g transform="translate(-519 -492)"><rect class="d" width="31" height="52" transform="translate(519 618)"/></g><g transform="translate(-471 -492)"><rect class="d" width="31" height="52" transform="translate(519 618)"/></g><g transform="translate(-423 -492)"><rect class="d" width="31" height="52" transform="translate(519 618)"/></g><g transform="translate(-375 -492)"><rect class="d" width="31" height="52" transform="translate(519 618)"/></g><g transform="translate(-519 -429)"><rect class="d" width="31" height="52" transform="translate(519 618)"/></g><g transform="translate(-471 -429)"><rect class="d" width="31" height="52" transform="translate(519 618)"/></g><g transform="translate(-423 -429)"><rect class="d" width="31" height="52" transform="translate(519 618)"/></g><g transform="translate(-375 -429)"><rect class="d" width="31" height="52" transform="translate(519 618)"/></g><g transform="translate(-519 -366)"><rect class="d" width="31" height="52" transform="translate(519 618)"/></g><g transform="translate(-471 -366)"><rect class="d" width="31" height="52" transform="translate(519 618)"/></g><g transform="translate(-423 -366)"><rect class="d" width="31" height="52" transform="translate(519 618)"/></g><g transform="translate(-375 -366)"><rect class="d" width="31" height="52" transform="translate(519 618)"/></g><g transform="translate(-519 -303)"><rect class="d" width="31" height="52" transform="translate(519 618)"/></g><g transform="translate(-471 -303)"><rect class="d" width="31" height="52" transform="translate(519 618)"/></g><g transform="translate(-423 -303)"><rect class="d" width="31" height="52" transform="translate(519 618)"/></g><g transform="translate(-375 -303)"><rect class="d" width="31" height="52" transform="translate(519 618)"/></g></g><g class="j" transform="translate(1665 320)"><g transform="translate(-773 -179)"><rect class="d" width="25" height="821" transform="translate(773 179)"/></g><g transform="translate(-736 -179)"><rect class="d" width="25" height="821" transform="translate(773 179)"/></g><g transform="translate(-699 -179)"><rect class="d" width="25" height="821" transform="translate(773 179)"/></g><g transform="translate(-662 -179)"><rect class="d" width="25" height="821" transform="translate(773 179)"/></g><g transform="translate(-625 -179)"><rect class="d" width="25" height="821" transform="translate(773 179)"/></g></g></g></svg>