<svg xmlns="http://www.w3.org/2000/svg" xmlns:xlink="http://www.w3.org/1999/xlink" viewBox="1299 2489 1920 952.609"><defs><style>.a{fill:none;}.b{fill:#697272;}.c{clip-path:url(#a);}.d{fill:#7f8c8d;}.e{clip-path:url(#b);}.f{clip-path:url(#c);}.g{clip-path:url(#d);}.h{clip-path:url(#e);}.i{clip-path:url(#f);}.j{clip-path:url(#g);}.k{fill:#95a5a6;}.l{clip-path:url(#h);}.m{clip-path:url(#i);}.n{clip-path:url(#j);}</style><clipPath id="a"><rect class="a" width="185" height="782"/></clipPath><clipPath id="b"><rect class="a" width="28" height="580"/></clipPath><clipPath id="c"><rect class="a" width="58" height="341"/></clipPath><clipPath id="d"><rect class="a" width="58" height="93"/></clipPath><clipPath id="e"><rect class="a" width="231" height="485"/></clipPath><clipPath id="f"><rect class="a" width="263" height="149"/></clipPath><clipPath id="g"><rect class="a" width="123" height="173"/></clipPath><clipPath id="h"><rect class="a" width="227" height="639"/></clipPath><clipPath id="i"><rect class="a" width="186" height="639"/></clipPath><clipPath id="j"><rect class="a" width="181" height="372"/></clipPath></defs><g transform="translate(1298 2362.031)"><path class="b" d="M1299,2155.622h50.526V1655.844h252.632v499.779h50.526V2005.689l151.579-99.956,151.579,99.956v149.934h50.526V1355.977h202.105v199.911H2259v249.889h50.526v249.889h50.526v99.956h50.526V1505.91h50.526V1306s153.571-6.817,151.579,0,0,199.911,0,199.911h50.526v649.712h50.526V1755.8h202.105v399.823h50.526V1505.91l101.053-149.934,101.052,149.934v649.712H3219v99.956H1299Z" transform="translate(-1298 -1176)"/><g class="c" transform="translate(724 200)"><g transform="translate(-773 -179)"><rect class="d" width="25" height="821" transform="translate(773 179)"/></g><g transform="translate(-736 -179)"><rect class="d" width="25" height="821" transform="translate(773 179)"/></g><g transform="translate(-699 -179)"><rect class="d" width="25" height="821" transform="translate(773 179)"/></g><g transform="translate(-662 -179)"><rect class="d" width="25" height="821" transform="translate(773 179)"/></g><g transform="translate(-625 -179)"><rect class="d" width="25" height="821" transform="translate(773 179)"/></g></g><g class="e" transform="translate(909 402)"><g transform="translate(-773 -179)"><rect class="d" width="25" height="821" transform="translate(773 179)"/></g></g><g class="f" transform="translate(946 641)"><g transform="translate(-773 -179)"><rect class="d" width="25" height="821" transform="translate(773 179)"/></g><g transform="translate(-736 -179)"><rect class="d" width="25" height="821" transform="translate(773 179)"/></g></g><g class="g" transform="translate(995 889)"><g transform="translate(-773 -179)"><rect class="d" width="25" height="821" transform="translate(773 179)"/></g><g transform="translate(-736 -179)"><rect class="d" width="25" height="821" transform="translate(773 179)"/></g></g><g class="h" transform="translate(64 496)"><g transform="translate(-519 -618)"><rect class="d" width="31" height="52" transform="translate(519 618)"/></g><g transform="translate(-471 -618)"><rect class="d" width="31" height="52" transform="translate(519 618)"/></g><g transform="translate(-423 -618)"><rect class="d" width="31" height="52" transform="translate(519 618)"/></g><g transform="translate(-375 -618)"><rect class="d" width="31" height="52" transform="translate(519 618)"/></g><g transform="translate(-327 -618)"><rect class="d" width="31" height="52" transform="translate(519 618)"/></g><g transform="translate(-519 -555)"><rect class="d" width="31" height="52" transform="translate(519 618)"/></g><g transform="translate(-471 -555)"><rect class="d" width="31" height="52" transform="translate(519 618)"/></g><g transform="translate(-423 -555)"><rect class="d" width="31" height="52" transform="translate(519 618)"/></g><g transform="translate(-375 -555)"><rect class="d" width="31" height="52" transform="translate(519 618)"/></g><g transform="translate(-327 -555)"><rect class="d" width="31" height="52" transform="translate(519 618)"/></g><g transform="translate(-519 -492)"><rect class="d" width="31" height="52" transform="translate(519 618)"/></g><g transform="translate(-471 -492)"><rect class="d" width="31" height="52" transform="translate(519 618)"/></g><g transform="translate(-423 -492)"><rect class="d" width="31" height="52" transform="translate(519 618)"/></g><g transform="translate(-375 -492)"><rect class="d" width="31" height="52" transform="translate(519 618)"/></g><g transform="translate(-327 -492)"><rect class="d" width="31" height="52" transform="translate(519 618)"/></g><g transform="translate(-519 -429)"><rect class="d" width="31" height="52" transform="translate(519 618)"/></g><g transform="translate(-471 -429)"><rect class="d" width="31" height="52" transform="translate(519 618)"/></g><g transform="translate(-423 -429)"><rect class="d" width="31" height="52" transform="translate(519 618)"/></g><g transform="translate(-375 -429)"><rect class="d" width="31" height="52" transform="translate(519 618)"/></g><g transform="translate(-327 -429)"><rect class="d" width="31" height="52" transform="translate(519 618)"/></g><g transform="translate(-519 -366)"><rect class="d" width="31" height="52" transform="translate(519 618)"/></g><g transform="translate(-471 -366)"><rect class="d" width="31" height="52" transform="translate(519 618)"/></g><g transform="translate(-423 -366)"><rect class="d" width="31" height="52" transform="translate(519 618)"/></g><g transform="translate(-375 -366)"><rect class="d" width="31" height="52" transform="translate(519 618)"/></g><g transform="translate(-327 -366)"><rect class="d" width="31" height="52" transform="translate(519 618)"/></g><g transform="translate(-519 -303)"><rect class="d" width="31" height="52" transform="translate(519 618)"/></g><g transform="translate(-471 -303)"><rect class="d" width="31" height="52" transform="translate(519 618)"/></g><g transform="translate(-423 -303)"><rect class="d" width="31" height="52" transform="translate(519 618)"/></g><g transform="translate(-375 -303)"><rect class="d" width="31" height="52" transform="translate(519 618)"/></g><g transform="translate(-327 -303)"><rect class="d" width="31" height="52" transform="translate(519 618)"/></g><g transform="translate(-519 -240)"><rect class="d" width="31" height="52" transform="translate(519 618)"/></g><g transform="translate(-471 -240)"><rect class="d" width="31" height="52" transform="translate(519 618)"/></g><g transform="translate(-423 -240)"><rect class="d" width="31" height="52" transform="translate(519 618)"/></g><g transform="translate(-375 -240)"><rect class="d" width="31" height="52" transform="translate(519 618)"/></g><g transform="translate(-327 -240)"><rect class="d" width="31" height="52" transform="translate(519 618)"/></g><g transform="translate(-519 -177)"><rect class="d" width="31" height="52" transform="translate(519 618)"/></g><g transform="translate(-471 -177)"><rect class="d" width="31" height="52" transform="translate(519 618)"/></g><g transform="translate(-423 -177)"><rect class="d" width="31" height="52" transform="translate(519 618)"/></g><g transform="translate(-375 -177)"><rect class="d" width="31" height="52" transform="translate(519 618)"/></g><g transform="translate(-327 -177)"><rect class="d" width="31" height="52" transform="translate(519 618)"/></g></g><g class="i" transform="translate(380 833)"><g transform="translate(-519 -618)"><rect class="d" width="31" height="32" transform="translate(519 618)"/></g><g transform="translate(-474 -618)"><rect class="d" width="31" height="32" transform="translate(519 618)"/></g><g transform="translate(-429 -618)"><rect class="d" width="31" height="32" transform="translate(519 618)"/></g><g transform="translate(-384 -618)"><rect class="d" width="31" height="32" transform="translate(519 618)"/></g><g transform="translate(-339 -618)"><rect class="d" width="31" height="32" transform="translate(519 618)"/></g><g transform="translate(-294 -618)"><rect class="d" width="31" height="32" transform="translate(519 618)"/></g><g transform="translate(-519 -562)"><rect class="d" width="31" height="32" transform="translate(519 618)"/></g><g transform="translate(-474 -562)"><rect class="d" width="31" height="32" transform="translate(519 618)"/></g><g transform="translate(-429 -562)"><rect class="d" width="31" height="32" transform="translate(519 618)"/></g><g transform="translate(-384 -562)"><rect class="d" width="31" height="32" transform="translate(519 618)"/></g><g transform="translate(-339 -562)"><rect class="d" width="31" height="32" transform="translate(519 618)"/></g><g transform="translate(-294 -562)"><rect class="d" width="31" height="32" transform="translate(519 618)"/></g><g transform="translate(-519 -506)"><rect class="d" width="31" height="32" transform="translate(519 618)"/></g><g transform="translate(-474 -506)"><rect class="d" width="31" height="32" transform="translate(519 618)"/></g><g transform="translate(-429 -506)"><rect class="d" width="31" height="32" transform="translate(519 618)"/></g><g transform="translate(-384 -506)"><rect class="d" width="31" height="32" transform="translate(519 618)"/></g><g transform="translate(-339 -506)"><rect class="d" width="31" height="32" transform="translate(519 618)"/></g><g transform="translate(-294 -506)"><rect class="d" width="31" height="32" transform="translate(519 618)"/></g></g><g class="j" transform="translate(1177 170)"><g transform="translate(-272 -415)"><rect class="k" width="160" height="17" transform="translate(272 415)"/></g><g transform="translate(-272 -386)"><rect class="k" width="160" height="17" transform="translate(272 415)"/></g><g transform="translate(-272 -357)"><rect class="k" width="160" height="17" transform="translate(272 415)"/></g><g transform="translate(-272 -328)"><rect class="k" width="160" height="17" transform="translate(272 415)"/></g><g transform="translate(-272 -299)"><rect class="k" width="160" height="17" transform="translate(272 415)"/></g><g transform="translate(-272 -270)"><rect class="k" width="160" height="17" transform="translate(272 415)"/></g></g><g class="l" transform="translate(1126 343)"><g transform="translate(-272 -415)"><rect class="k" width="223" height="15" transform="translate(272 415)"/></g><g transform="translate(-92 -415)"><rect class="k" width="223" height="15" transform="translate(272 415)"/></g><g transform="translate(-272 -386)"><rect class="k" width="223" height="15" transform="translate(272 415)"/></g><g transform="translate(-92 -386)"><rect class="k" width="223" height="15" transform="translate(272 415)"/></g><g transform="translate(-272 -357)"><rect class="k" width="223" height="15" transform="translate(272 415)"/></g><g transform="translate(-92 -357)"><rect class="k" width="223" height="15" transform="translate(272 415)"/></g><g transform="translate(-272 -328)"><rect class="k" width="223" height="15" transform="translate(272 415)"/></g><g transform="translate(-92 -328)"><rect class="k" width="223" height="15" transform="translate(272 415)"/></g><g transform="translate(-272 -299)"><rect class="k" width="223" height="15" transform="translate(272 415)"/></g><g transform="translate(-92 -299)"><rect class="k" width="223" height="15" transform="translate(272 415)"/></g><g transform="translate(-272 -270)"><rect class="k" width="223" height="15" transform="translate(272 415)"/></g><g transform="translate(-92 -270)"><rect class="k" width="223" height="15" transform="translate(272 415)"/></g><g transform="translate(-272 -241)"><rect class="k" width="223" height="15" transform="translate(272 415)"/></g><g transform="translate(-92 -241)"><rect class="k" width="223" height="15" transform="translate(272 415)"/></g><g transform="translate(-272 -212)"><rect class="k" width="223" height="15" transform="translate(272 415)"/></g><g transform="translate(-92 -212)"><rect class="k" width="223" height="15" transform="translate(272 415)"/></g><g transform="translate(-272 -183)"><rect class="k" width="223" height="15" transform="translate(272 415)"/></g><g transform="translate(-92 -183)"><rect class="k" width="223" height="15" transform="translate(272 415)"/></g><g transform="translate(-272 -154)"><rect class="k" width="223" height="15" transform="translate(272 415)"/></g><g transform="translate(-92 -154)"><rect class="k" width="223" height="15" transform="translate(272 415)"/></g><g transform="translate(-272 -125)"><rect class="k" width="223" height="15" transform="translate(272 415)"/></g><g transform="translate(-92 -125)"><rect class="k" width="223" height="15" transform="translate(272 415)"/></g><g transform="translate(-272 -96)"><rect class="k" width="223" height="15" transform="translate(272 415)"/></g><g transform="translate(-92 -96)"><rect class="k" width="223" height="15" transform="translate(272 415)"/></g><g transform="translate(-272 -67)"><rect class="k" width="223" height="15" transform="translate(272 415)"/></g><g transform="translate(-92 -67)"><rect class="k" width="223" height="15" transform="translate(272 415)"/></g><g transform="translate(-272 -38)"><rect class="k" width="223" height="15" transform="translate(272 415)"/></g><g transform="translate(-92 -38)"><rect class="k" width="223" height="15" transform="translate(272 415)"/></g><g transform="translate(-272 -9)"><rect class="k" width="223" height="15" transform="translate(272 415)"/></g><g transform="translate(-92 -9)"><rect class="k" width="223" height="15" transform="translate(272 415)"/></g><g transform="translate(-272 20)"><rect class="k" width="223" height="15" transform="translate(272 415)"/></g><g transform="translate(-92 20)"><rect class="k" width="223" height="15" transform="translate(272 415)"/></g><g transform="translate(-272 49)"><rect class="k" width="223" height="15" transform="translate(272 415)"/></g><g transform="translate(-92 49)"><rect class="k" width="223" height="15" transform="translate(272 415)"/></g><g transform="translate(-272 78)"><rect class="k" width="223" height="15" transform="translate(272 415)"/></g><g transform="translate(-92 78)"><rect class="k" width="223" height="15" transform="translate(272 415)"/></g><g transform="translate(-272 107)"><rect class="k" width="223" height="15" transform="translate(272 415)"/></g><g transform="translate(-92 107)"><rect class="k" width="223" height="15" transform="translate(272 415)"/></g><g transform="translate(-272 136)"><rect class="k" width="223" height="15" transform="translate(272 415)"/></g><g transform="translate(-92 136)"><rect class="k" width="223" height="15" transform="translate(272 415)"/></g><g transform="translate(-272 165)"><rect class="k" width="223" height="15" transform="translate(272 415)"/></g><g transform="translate(-92 165)"><rect class="k" width="223" height="15" transform="translate(272 415)"/></g><g transform="translate(-272 194)"><rect class="k" width="223" height="15" transform="translate(272 415)"/></g><g transform="translate(-92 194)"><rect class="k" width="223" height="15" transform="translate(272 415)"/></g><g transform="translate(-272 223)"><rect class="k" width="223" height="15" transform="translate(272 415)"/></g><g transform="translate(-92 223)"><rect class="k" width="223" height="15" transform="translate(272 415)"/></g></g><g class="m" transform="translate(1679 343)"><g transform="translate(-773 -179)"><rect class="d" width="47" height="821" transform="translate(773 179)"/></g><g transform="translate(-706 -179)"><rect class="d" width="47" height="821" transform="translate(773 179)"/></g><g transform="translate(-639 -179)"><rect class="d" width="47" height="821" transform="translate(773 179)"/></g></g><g class="n" transform="translate(1429 605)"><g transform="translate(-519 -618)"><rect class="d" width="31" height="52" transform="translate(519 618)"/></g><g transform="translate(-471 -618)"><rect class="d" width="31" height="52" transform="translate(519 618)"/></g><g transform="translate(-423 -618)"><rect class="d" width="31" height="52" transform="translate(519 618)"/></g><g transform="translate(-375 -618)"><rect class="d" width="31" height="52" transform="translate(519 618)"/></g><g transform="translate(-519 -555)"><rect class="d" width="31" height="52" transform="translate(519 618)"/></g><g transform="translate(-471 -555)"><rect class="d" width="31" height="52" transform="translate(519 618)"/></g><g transform="translate(-423 -555)"><rect class="d" width="31" height="52" transform="translate(519 618)"/></g><g transform="translate(-375 -555)"><rect class="d" width="31" height="52" transform="translate(519 618)"/></g><g transform="translate(-519 -492)"><rect class="d" width="31" height="52" transform="translate(519 618)"/></g><g transform="translate(-471 -492)"><rect class="d" width="31" height="52" transform="translate(519 618)"/></g><g transform="translate(-423 -492)"><rect class="d" width="31" height="52" transform="translate(519 618)"/></g><g transform="translate(-375 -492)"><rect class="d" width="31" height="52" transform="translate(519 618)"/></g><g transform="translate(-519 -429)"><rect class="d" width="31" height="52" transform="translate(519 618)"/></g><g transform="translate(-471 -429)"><rect class="d" width="31" height="52" transform="translate(519 618)"/></g><g transform="translate(-423 -429)"><rect class="d" width="31" height="52" transform="translate(519 618)"/></g><g transform="translate(-375 -429)"><rect class="d" width="31" height="52" transform="translate(519 618)"/></g><g transform="translate(-519 -366)"><rect class="d" width="31" height="52" transform="translate(519 618)"/></g><g transform="translate(-471 -366)"><rect class="d" width="31" height="52" transform="translate(519 618)"/></g><g transform="translate(-423 -366)"><rect class="d" width="31" height="52" transform="translate(519 618)"/></g><g transform="translate(-375 -366)"><rect class="d" width="31" height="52" transform="translate(519 618)"/></g><g transform="translate(-519 -303)"><rect class="d" width="31" height="52" transform="translate(519 618)"/></g><g transform="translate(-471 -303)"><rect class="d" width="31" height="52" transform="translate(519 618)"/></g><g transform="translate(-423 -303)"><rect class="d" width="31" height="52" transform="translate(519 618)"/></g><g transform="translate(-375 -303)"><rect class="d" width="31" height="52" transform="translate(519 618)"/></g></g></g></svg>