<svg xmlns="http://www.w3.org/2000/svg" viewBox="643.431 3969.463 2372.354 520.537"><defs><style>.a{fill:#e74c3c;}.b{fill:#191b1d;stroke:#1f2224;}.c{fill:#697272;}.d{fill:#7f8c8d;}.e,.f,.n{fill:none;}.e{stroke:#c0392b;stroke-width:2px;}.f{stroke:#59636a;stroke-width:4px;}.g{fill:#3498db;}.h{fill:#c0392b;}.i,.l{fill:#f1c40f;}.j{fill:#e67e22;}.k{fill:#f39c12;}.l{stroke:#95989a;opacity:0.145;}.m{stroke:none;}</style></defs><g transform="translate(68 3714)"><g transform="translate(1786 -24)"><path class="a" d="M1660.9,4293.987H1531.841s-32.35-3.078-32.868-26,0-122.109,0-122.109-2.965-44.446,32.868-44.131,101.322,0,101.322,0h89.46L1856.812,3968h285.205l72.634,133.748h108.527s25.373,5.9,25.663,45.7,0,120.544,0,120.544,7.98,26.691-25.663,26-29.153,0-29.153,0Z" transform="translate(-1198.743 -3568)"/><g class="b" transform="translate(381 630)"><ellipse class="m" cx="84.5" cy="85" rx="84.5" ry="85"/><ellipse class="n" cx="84.5" cy="85" rx="84" ry="84.5"/></g><circle class="c" cx="42.5" cy="42.5" r="42.5" transform="translate(423 673)"/><circle class="d" cx="5.5" cy="5.5" r="5.5" transform="translate(446 700)"/><circle class="d" cx="5.5" cy="5.5" r="5.5" transform="translate(476 700)"/><circle class="d" cx="5.5" cy="5.5" r="5.5" transform="translate(476 726)"/><path class="e" d="M2123.733,4102.668l.227,154.245s2.235,13.217-12.672,13.26S1979.882,4268,1979.882,4268s-24.484,3.312-24.391-20.406,0-144.926,0-144.926" transform="translate(-1119 -3570.173)"/><circle class="d" cx="5.5" cy="5.5" r="5.5" transform="translate(446 726)"/><g class="f" transform="translate(381 630)"><ellipse class="m" cx="84.5" cy="85" rx="84.5" ry="85"/><ellipse class="n" cx="84.5" cy="85" rx="82.5" ry="83"/></g><g class="b" transform="translate(921 630)"><ellipse class="m" cx="84.5" cy="85" rx="84.5" ry="85"/><ellipse class="n" cx="84.5" cy="85" rx="84" ry="84.5"/></g><circle class="c" cx="42.5" cy="42.5" r="42.5" transform="translate(963 673)"/><circle class="d" cx="5.5" cy="5.5" r="5.5" transform="translate(986 700)"/><circle class="d" cx="5.5" cy="5.5" r="5.5" transform="translate(1016 700)"/><circle class="d" cx="5.5" cy="5.5" r="5.5" transform="translate(1016 726)"/><circle class="d" cx="5.5" cy="5.5" r="5.5" transform="translate(986 726)"/><g class="f" transform="translate(921 630)"><ellipse class="m" cx="84.5" cy="85" rx="84.5" ry="85"/><ellipse class="n" cx="84.5" cy="85" rx="82.5" ry="83"/></g><path class="g" d="M1837.217,4101.731h119.069V3981.344l-4.4,2.981Z" transform="translate(-1299 -3568)"/><path class="g" d="M1965.874,4101.731l-2.066-111.61,2.066-8.372,9.789-3.218H2116.4l6.372,3.218,2.571,6.624v113.358Z" transform="translate(-1299 -3568)"/><path class="g" d="M1965.2,4101.731l-1.495-114.906,1.495-6.1,5.633-2.192H2062.7l5.937,2.192,2.553,3.032,63.212,117.977Z" transform="translate(-1129.327 -3568)"/><path class="h" d="M2121.162,4139.221s-6.661-6.5-11.647-6.955-19.751,0-19.751,0-19.453,8.962-11.3,11.93,36.421,0,36.421,0Z" transform="translate(-1295 -3569)"/><ellipse class="h" cx="33" cy="19.5" rx="33" ry="19.5" transform="matrix(1, -0.017, 0.017, 1, 537.665, 511.579)"/><path class="h" d="M2121.162,4139.221s-6.661-6.5-11.647-6.955-19.751,0-19.751,0-19.453,8.962-11.3,11.93,36.421,0,36.421,0Z" transform="translate(-1135 -3569)"/><path class="e" d="M2124.989,4102.668l.229,154.245s2.251,13.217-12.767,13.26S1980.065,4268,1980.065,4268s-24.667,3.312-24.573-20.406,0-144.926,0-144.926" transform="translate(-1299 -3568)"/><path class="i" d="M1599,4148.749c.028.985,0,69.251,0,69.251a108.551,108.551,0,0,1-8.033-33.332C1589.621,4166.074,1598.972,4147.764,1599,4148.749Z" transform="translate(-1299 -3568)"/><path class="j" d="M2449,4144.516c-2.135,1.442,0,28.842,0,28.842s11.941-4.7,11.783-15.788S2451.135,4143.074,2449,4144.516Z" transform="translate(-1299 -3568)"/><path class="j" d="M2449,4144.516c-2.135,1.442,0,28.842,0,28.842s11.941-4.7,11.783-15.788S2451.135,4143.074,2449,4144.516Z" transform="translate(-1299 -3530)"/><path class="k" d="M2448.661,4144.4c-1.371.926,0,18.528,0,18.528s7.671-3.017,7.569-10.143S2450.032,4143.477,2448.661,4144.4Z" transform="translate(-1296 -3563)"/><path class="k" d="M2448.661,4144.4c-1.371.926,0,18.528,0,18.528s7.671-3.017,7.569-10.143S2450.032,4143.477,2448.661,4144.4Z" transform="translate(-1296 -3525)"/></g><path class="l" d="M2413.552,4196.1,1143.088,3882.938s-186.85,73.73-209.733,188.578-29.951,148.932-8.31,205.713c2.316,6.076-.9,20.735,3.1,21.22,4.364,18.36,4.747,14.906,3.581,30.41-3.187,33.911,77.914,25.342,77.914,25.342l1403.915-108.858" transform="translate(-336.1 -3626.952)"/></g></svg>